# xmcd
#
# Track frame offsets:
#	150
#	4500
#	19785
#	47665
#	86695
#	112380
#	153940
#	183450
#	210470
#
# Disc length: 3151 seconds
#
# Revision: 2
# Processed by: cddbd v1.5.1PL0 Copyright (c) Steve Scherf et al.
# Submitted via: EasyCDDAExtractor 5.1.0
#
DISCID=6c0c4d09
DTITLE=Black Sabbath - Hollywood Bowl Los Angeles 15-09-72
DYEAR=1972
DGENRE=Hard Rock
TTITLE0=Radio Ad
TTITLE1=Tomorrow's Dream
TTITLE2=Sweet Leaf
TTITLE3=War Pigs
TTITLE4=Snowblind
TTITLE5=Iron Man
TTITLE6=Under The Sun
TTITLE7=Wheels Of Confusion
TTITLE8=Children Of The Grave
EXTD=
EXTT0=
EXTT1=
EXTT2=
EXTT3=
EXTT4=
EXTT5=
EXTT6=
EXTT7=
EXTT8=
PLAYORDER=
